<svg width="237" height="317" viewBox="0 0 237 317" fill="none" xmlns="http://www.w3.org/2000/svg">
<g filter="url(#filter0_dd_107_199)">
<rect x="26" y="110" width="101" height="97" rx="48.5" fill="#F1F3F6"/>
<rect x="26.5" y="110.5" width="100" height="96" rx="48" stroke="#F0F0F0"/>
</g>
<path d="M66.8335 171.049C63.3647 170.84 62.3798 171.981 59.4563 170.07C56.5329 168.16 54.142 165.516 52.5136 162.394C50.8851 159.271 50.074 155.775 50.1582 152.241C50.2423 148.708 51.2189 145.256 52.9941 142.217C54.7692 139.179 57.2832 136.656 60.2941 134.892C63.3051 133.127 66.7118 132.18 70.1865 132.142C73.6612 132.105 77.087 132.977 80.1344 134.675C83.1819 136.374 85.7484 138.841 87.5872 141.84C91.548 141.969 95.3096 143.637 98.0978 146.501C100.886 149.366 102.488 153.209 102.575 157.238C102.662 161.268 101.227 165.179 98.5655 168.165C95.9036 171.151 92.2323 170.743 88.2809 171.049L76.3657 164.183L66.8335 171.049Z" fill="url(#paint0_linear_107_199)"/>
<g filter="url(#filter1_b_107_199)">
<path d="M85.5621 173.337L78.0484 166.12C77.6015 165.691 76.9955 165.45 76.3636 165.45C75.7317 165.45 75.1256 165.691 74.6787 166.12L67.2603 173.245C64.0039 172.922 60.8889 171.799 58.2153 169.985C55.5417 168.17 53.3996 165.725 51.9954 162.885C50.5911 160.045 49.972 156.905 50.1975 153.768C50.4231 150.632 51.4859 147.604 53.2834 144.976C55.0809 142.348 57.5527 140.209 60.4606 138.765C63.3686 137.321 66.6148 136.62 69.8865 136.73C73.1583 136.84 76.3454 137.757 79.141 139.393C81.9366 141.03 84.2464 143.33 85.8481 146.072C87.7994 145.749 89.7993 145.819 91.721 146.278C93.6427 146.736 95.4443 147.573 97.0117 148.735C98.579 149.897 99.878 151.359 100.826 153.029C101.774 154.698 102.351 156.538 102.52 158.433C102.689 160.328 102.446 162.236 101.808 164.036C101.169 165.836 100.147 167.488 98.8085 168.889C97.4696 170.291 95.8424 171.409 94.0298 172.175C92.2172 172.94 90.2589 173.336 88.2788 173.337H85.5645H85.5621ZM72.1503 175.012L76.3636 170.965L80.5768 175.012C81.4098 175.812 81.9771 176.832 82.2068 177.941C82.4365 179.051 82.3185 180.202 81.8675 181.247C81.4166 182.292 80.6529 183.186 79.6733 183.815C78.6936 184.443 77.5418 184.779 76.3636 184.779C75.1853 184.779 74.0335 184.443 73.0539 183.815C72.0742 183.186 71.3106 182.292 70.8596 181.247C70.4086 180.202 70.2906 179.051 70.5203 177.941C70.7501 176.832 71.3173 175.812 72.1503 175.012Z" fill="white" fill-opacity="0.2"/>
</g>
<defs>
<filter id="filter0_dd_107_199" x="-84" y="0" width="321" height="317" filterUnits="userSpaceOnUse" color-interpolation-filters="sRGB">
<feFlood flood-opacity="0" result="BackgroundImageFix"/>
<feColorMatrix in="SourceAlpha" type="matrix" values="0 0 0 0 0 0 0 0 0 0 0 0 0 0 0 0 0 0 127 0" result="hardAlpha"/>
<feOffset dx="30" dy="30"/>
<feGaussianBlur stdDeviation="40"/>
<feColorMatrix type="matrix" values="0 0 0 0 0.215686 0 0 0 0 0.329412 0 0 0 0 0.666667 0 0 0 0.1 0"/>
<feBlend mode="normal" in2="BackgroundImageFix" result="effect1_dropShadow_107_199"/>
<feColorMatrix in="SourceAlpha" type="matrix" values="0 0 0 0 0 0 0 0 0 0 0 0 0 0 0 0 0 0 127 0" result="hardAlpha"/>
<feOffset dx="-30" dy="-30"/>
<feGaussianBlur stdDeviation="40"/>
<feColorMatrix type="matrix" values="0 0 0 0 1 0 0 0 0 1 0 0 0 0 1 0 0 0 1 0"/>
<feBlend mode="normal" in2="effect1_dropShadow_107_199" result="effect2_dropShadow_107_199"/>
<feBlend mode="normal" in="SourceGraphic" in2="effect2_dropShadow_107_199" result="shape"/>
</filter>
<filter id="filter1_b_107_199" x="-34.8478" y="51.7187" width="222.42" height="218.06" filterUnits="userSpaceOnUse" color-interpolation-filters="sRGB">
<feFlood flood-opacity="0" result="BackgroundImageFix"/>
<feGaussianBlur in="BackgroundImageFix" stdDeviation="42.5"/>
<feComposite in2="SourceAlpha" operator="in" result="effect1_backgroundBlur_107_199"/>
<feBlend mode="normal" in="SourceGraphic" in2="effect1_backgroundBlur_107_199" result="shape"/>
</filter>
<linearGradient id="paint0_linear_107_199" x1="50.1522" y1="150.368" x2="101.322" y2="150.675" gradientUnits="userSpaceOnUse">
<stop stop-color="#5EEC75"/>
<stop offset="1" stop-color="#57E9A5" stop-opacity="0.65"/>
</linearGradient>
</defs>
</svg>
