<svg width="53" height="54" viewBox="0 0 53 54" fill="none" xmlns="http://www.w3.org/2000/svg">
<g filter="url(#filter0_d_107_558)">
<rect x="4" width="45" height="46" rx="22.5" fill="white"/>
<rect x="4.5" y="0.5" width="44" height="45" rx="22" stroke="#F5F5F5"/>
</g>
<ellipse cx="27.3043" cy="22.8461" rx="13.6957" ry="13.8462" fill="#EDF9FF"/>
<ellipse cx="31.5652" cy="28.3846" rx="8.52174" ry="8.61539" fill="#FFF6D5"/>
<path d="M23.5988 31.879C23.5328 31.879 23.4878 31.867 23.4638 31.843C23.4398 31.813 23.4278 31.762 23.4278 31.69V26.56L22.8788 27.082C22.7828 27.172 22.7078 27.181 22.6538 27.109L22.1228 26.506C22.0868 26.464 22.0748 26.428 22.0868 26.398C22.1048 26.362 22.1408 26.32 22.1948 26.272L23.5808 24.976C23.6468 24.922 23.7188 24.895 23.7968 24.895H24.3908C24.5228 24.895 24.6008 24.91 24.6248 24.94C24.6488 24.97 24.6608 25.06 24.6608 25.21V31.69C24.6608 31.756 24.6488 31.804 24.6248 31.834C24.6008 31.864 24.5558 31.879 24.4898 31.879H23.5988ZM29.5428 31.654C29.3868 31.774 29.2098 31.858 29.0118 31.906C28.8138 31.954 28.6038 31.981 28.3818 31.987C28.2678 31.987 28.1448 31.978 28.0128 31.96C27.8808 31.948 27.7548 31.93 27.6348 31.906C27.5148 31.888 27.4038 31.864 27.3018 31.834C27.1998 31.804 27.1218 31.777 27.0678 31.753C27.0018 31.723 26.9568 31.699 26.9328 31.681C26.9148 31.657 26.9088 31.612 26.9148 31.546L26.9868 30.889C26.9928 30.817 27.0078 30.772 27.0318 30.754C27.0558 30.736 27.1008 30.739 27.1668 30.763C27.3528 30.829 27.5448 30.886 27.7428 30.934C27.9468 30.982 28.1568 31.006 28.3728 31.006C28.5888 31.006 28.7478 30.952 28.8498 30.844C28.9518 30.736 29.0028 30.601 29.0028 30.439C29.0028 30.325 28.9488 30.214 28.8408 30.106C28.7388 29.992 28.6158 29.887 28.4718 29.791C28.3278 29.695 28.1808 29.608 28.0308 29.53C27.8808 29.446 27.7608 29.377 27.6708 29.323C27.4728 29.203 27.3048 29.05 27.1668 28.864C27.0348 28.672 26.9688 28.45 26.9688 28.198C26.9688 27.928 27.0138 27.697 27.1038 27.505C27.1998 27.307 27.3228 27.145 27.4728 27.019C27.6288 26.893 27.8058 26.8 28.0038 26.74C28.2078 26.68 28.4148 26.65 28.6248 26.65C28.7328 26.65 28.8468 26.659 28.9668 26.677C29.0928 26.689 29.2098 26.707 29.3178 26.731C29.4318 26.755 29.5368 26.782 29.6328 26.812C29.7288 26.842 29.8038 26.869 29.8578 26.893C29.9178 26.923 29.9508 26.95 29.9568 26.974C29.9688 26.998 29.9718 27.034 29.9658 27.082L29.8848 27.766C29.8728 27.838 29.8518 27.88 29.8218 27.892C29.7918 27.898 29.7438 27.886 29.6778 27.856C29.3658 27.706 29.0328 27.637 28.6788 27.649C28.4868 27.655 28.3458 27.703 28.2558 27.793C28.1718 27.877 28.1298 27.997 28.1298 28.153C28.1298 28.219 28.1688 28.3 28.2468 28.396C28.3248 28.492 28.4628 28.594 28.6608 28.702C28.8468 28.804 29.0148 28.903 29.1648 28.999C29.3148 29.089 29.4288 29.161 29.5068 29.215C29.7228 29.383 29.8848 29.551 29.9928 29.719C30.1068 29.887 30.1638 30.112 30.1638 30.394C30.1638 30.658 30.1128 30.898 30.0108 31.114C29.9088 31.324 29.7528 31.504 29.5428 31.654ZM33.5642 31.78C33.4442 31.834 33.3002 31.879 33.1322 31.915C32.9642 31.957 32.7722 31.975 32.5562 31.969C32.3342 31.963 32.1332 31.909 31.9532 31.807C31.7732 31.699 31.6412 31.57 31.5572 31.42C31.4732 31.246 31.4222 31.051 31.4042 30.835C31.3862 30.613 31.3772 30.328 31.3772 29.98V27.856H30.7382C30.6242 27.856 30.5672 27.796 30.5672 27.676V26.929C30.5672 26.809 30.6242 26.749 30.7382 26.749H31.3772V25.552C31.3772 25.432 31.4372 25.372 31.5572 25.372H32.3852C32.4992 25.372 32.5562 25.432 32.5562 25.552V26.749H33.3212C33.3932 26.749 33.4382 26.764 33.4562 26.794C33.4802 26.818 33.4922 26.863 33.4922 26.929V27.676C33.4922 27.742 33.4802 27.79 33.4562 27.82C33.4382 27.844 33.3932 27.856 33.3212 27.856H32.5562V29.872C32.5562 30.088 32.5562 30.265 32.5562 30.403C32.5562 30.535 32.5622 30.622 32.5742 30.664C32.5982 30.778 32.6492 30.85 32.7272 30.88C32.8052 30.91 32.8892 30.919 32.9792 30.907C33.0692 30.895 33.1562 30.874 33.2402 30.844C33.3242 30.814 33.3902 30.787 33.4382 30.763C33.4862 30.739 33.5222 30.739 33.5462 30.763C33.5702 30.781 33.5852 30.823 33.5912 30.889L33.6722 31.564C33.6782 31.618 33.6752 31.663 33.6632 31.699C33.6512 31.729 33.6182 31.756 33.5642 31.78Z" fill="#3185E7"/>
<defs>
<filter id="filter0_d_107_558" x="0" y="0" width="53" height="54" filterUnits="userSpaceOnUse" color-interpolation-filters="sRGB">
<feFlood flood-opacity="0" result="BackgroundImageFix"/>
<feColorMatrix in="SourceAlpha" type="matrix" values="0 0 0 0 0 0 0 0 0 0 0 0 0 0 0 0 0 0 127 0" result="hardAlpha"/>
<feOffset dy="4"/>
<feGaussianBlur stdDeviation="2"/>
<feComposite in2="hardAlpha" operator="out"/>
<feColorMatrix type="matrix" values="0 0 0 0 0 0 0 0 0 0 0 0 0 0 0 0 0 0 0.1 0"/>
<feBlend mode="normal" in2="BackgroundImageFix" result="effect1_dropShadow_107_558"/>
<feBlend mode="normal" in="SourceGraphic" in2="effect1_dropShadow_107_558" result="shape"/>
</filter>
</defs>
</svg>
