<svg width="63" height="62" viewBox="0 0 63 62" fill="none" xmlns="http://www.w3.org/2000/svg">
<g filter="url(#filter0_d_859_625)">
<rect x="4" width="55" height="54" rx="27" fill="white"/>
<rect x="4.5" y="0.5" width="54" height="53" rx="26.5" stroke="#F5F5F5"/>
</g>
<path d="M27.2135 35.094C25.2415 34.9739 24.6816 35.63 23.0196 34.5317C21.3577 33.4333 19.9985 31.9136 19.0727 30.1186C18.147 28.3237 17.6859 26.3139 17.7337 24.2827C17.7816 22.2514 18.3368 20.267 19.3459 18.5203C20.3551 16.7735 21.7842 15.3233 23.4959 14.309C25.2076 13.2947 27.1443 12.7505 29.1196 12.7287C31.095 12.7069 33.0425 13.2083 34.775 14.1846C36.5074 15.161 37.9665 16.5794 39.0118 18.3034C41.2635 18.3774 43.4019 19.3364 44.9869 20.983C46.572 22.6297 47.483 24.8386 47.5324 27.1552C47.5819 29.4718 46.7661 31.7198 45.2528 33.4364C43.7396 35.153 41.6525 34.9185 39.4061 35.094L32.6325 31.1471L27.2135 35.094Z" fill="url(#paint0_linear_859_625)"/>
<g filter="url(#filter1_b_859_625)">
<path d="M37.8605 36.4092L33.5891 32.261C33.335 32.0144 32.9905 31.8758 32.6313 31.8758C32.272 31.8758 31.9275 32.0144 31.6735 32.261L27.4562 36.3566C25.6049 36.171 23.834 35.5255 22.3141 34.4824C20.7942 33.4393 19.5765 32.0338 18.7782 30.4011C17.9799 28.7684 17.6279 26.9636 17.7561 25.1605C17.8844 23.3573 18.4885 21.6167 19.5104 20.1061C20.5323 18.5955 21.9374 17.3658 23.5906 16.5356C25.2437 15.7054 27.0891 15.3025 28.9491 15.3658C30.8091 15.4291 32.621 15.9564 34.2102 16.8969C35.7995 17.8375 37.1126 19.1596 38.0231 20.7359C39.1324 20.5505 40.2694 20.5908 41.3618 20.8543C42.4543 21.1178 43.4785 21.5989 44.3695 22.2669C45.2606 22.9349 45.999 23.7754 46.5381 24.7351C47.0771 25.6948 47.4051 26.7527 47.5011 27.8419C47.5971 28.9311 47.4591 30.0278 47.0959 31.0626C46.7327 32.0973 46.1521 33.0474 45.391 33.8528C44.6299 34.6583 43.7048 35.3014 42.6744 35.7414C41.6439 36.1815 40.5306 36.4089 39.4049 36.4092H37.8619H37.8605ZM30.2361 37.3723L32.6313 35.0462L35.0264 37.3723C35.5 37.8323 35.8225 38.4184 35.9531 39.0564C36.0837 39.6944 36.0166 40.3557 35.7602 40.9566C35.5038 41.5576 35.0697 42.0712 34.5128 42.4326C33.9558 42.794 33.3011 42.9869 32.6313 42.9869C31.9614 42.9869 31.3067 42.794 30.7497 42.4326C30.1928 42.0712 29.7587 41.5576 29.5023 40.9566C29.2459 40.3557 29.1788 39.6944 29.3094 39.0564C29.44 38.4184 29.7625 37.8323 30.2361 37.3723V37.3723Z" fill="white" fill-opacity="0.2"/>
</g>
<defs>
<filter id="filter0_d_859_625" x="0" y="0" width="63" height="62" filterUnits="userSpaceOnUse" color-interpolation-filters="sRGB">
<feFlood flood-opacity="0" result="BackgroundImageFix"/>
<feColorMatrix in="SourceAlpha" type="matrix" values="0 0 0 0 0 0 0 0 0 0 0 0 0 0 0 0 0 0 127 0" result="hardAlpha"/>
<feOffset dy="4"/>
<feGaussianBlur stdDeviation="2"/>
<feComposite in2="hardAlpha" operator="out"/>
<feColorMatrix type="matrix" values="0 0 0 0 0 0 0 0 0 0 0 0 0 0 0 0 0 0 0.1 0"/>
<feBlend mode="normal" in2="BackgroundImageFix" result="effect1_dropShadow_859_625"/>
<feBlend mode="normal" in="SourceGraphic" in2="effect1_dropShadow_859_625" result="shape"/>
</filter>
<filter id="filter1_b_859_625" x="-67.2697" y="-69.6407" width="199.8" height="197.628" filterUnits="userSpaceOnUse" color-interpolation-filters="sRGB">
<feFlood flood-opacity="0" result="BackgroundImageFix"/>
<feGaussianBlur in="BackgroundImageFix" stdDeviation="42.5"/>
<feComposite in2="SourceAlpha" operator="in" result="effect1_backgroundBlur_859_625"/>
<feBlend mode="normal" in="SourceGraphic" in2="effect1_backgroundBlur_859_625" result="shape"/>
</filter>
<linearGradient id="paint0_linear_859_625" x1="17.7303" y1="23.2058" x2="46.8198" y2="23.3782" gradientUnits="userSpaceOnUse">
<stop stop-color="#5EEC75"/>
<stop offset="1" stop-color="#57E9A5" stop-opacity="0.65"/>
</linearGradient>
</defs>
</svg>
