<svg width="58" height="56" viewBox="0 0 58 56" fill="none" xmlns="http://www.w3.org/2000/svg">
<ellipse cx="29" cy="28" rx="29" ry="28" fill="#F1F3F6"/>
<path d="M24.6404 37.2445C22.7171 37.1239 22.171 37.7828 20.5501 36.6797C18.9292 35.5767 17.6035 34.0504 16.7006 32.2478C15.7977 30.4451 15.348 28.4268 15.3947 26.3868C15.4413 24.3468 15.9828 22.3539 16.967 20.5997C17.9513 18.8455 19.3452 17.389 21.0146 16.3703C22.684 15.3517 24.5729 14.8051 26.4995 14.7833C28.426 14.7614 30.3255 15.2649 32.0152 16.2454C33.7048 17.2259 35.1279 18.6504 36.1474 20.3819C38.3435 20.4562 40.4291 21.4193 41.975 23.073C43.5209 24.7267 44.4094 26.9451 44.4577 29.2717C44.5059 31.5982 43.7102 33.8558 42.2343 35.5798C40.7585 37.3037 38.7229 37.0682 36.532 37.2445L29.9255 33.2807L24.6404 37.2445Z" fill="url(#paint0_linear_82_310)"/>
<g filter="url(#filter0_b_82_310)">
<path d="M35.0246 38.5654L30.8585 34.3994C30.6107 34.1516 30.2747 34.0125 29.9244 34.0125C29.574 34.0125 29.238 34.1516 28.9902 34.3994L24.877 38.5125C23.0715 38.3261 21.3443 37.6778 19.862 36.6303C18.3796 35.5827 17.1919 34.1711 16.4133 32.5314C15.6347 30.8917 15.2914 29.0792 15.4165 27.2683C15.5416 25.4575 16.1308 23.7093 17.1275 22.1923C18.1241 20.6752 19.4946 19.4403 21.1069 18.6065C22.7192 17.7727 24.5191 17.3681 26.3331 17.4317C28.1472 17.4952 29.9143 18.0248 31.4644 18.9694C33.0144 19.914 34.2951 21.2417 35.1831 22.8249C36.2651 22.6386 37.3739 22.679 38.4394 22.9437C39.5049 23.2084 40.5038 23.6915 41.3728 24.3624C42.2419 25.0333 42.9621 25.8774 43.4878 26.8412C44.0136 27.805 44.3334 28.8675 44.4271 29.9613C44.5207 31.0552 44.3862 32.1566 44.0319 33.1958C43.6777 34.2349 43.1114 35.1891 42.3691 35.998C41.6268 36.8069 40.7245 37.4527 39.7195 37.8947C38.7145 38.3366 37.6287 38.565 36.5308 38.5654H35.0259H35.0246ZM27.5883 39.5326L29.9244 37.1965L32.2604 39.5326C32.7223 39.9946 33.0368 40.5831 33.1642 41.2239C33.2916 41.8646 33.2261 42.5287 32.9761 43.1323C32.726 43.7358 32.3027 44.2516 31.7595 44.6146C31.2163 44.9775 30.5777 45.1712 29.9244 45.1712C29.2711 45.1712 28.6325 44.9775 28.0893 44.6146C27.5461 44.2516 27.1227 43.7358 26.8727 43.1323C26.6226 42.5287 26.5572 41.8646 26.6846 41.2239C26.8119 40.5831 27.1265 39.9946 27.5883 39.5326Z" fill="white" fill-opacity="0.2"/>
</g>
<defs>
<filter id="filter0_b_82_310" x="-69.6086" y="-67.5748" width="199.065" height="197.746" filterUnits="userSpaceOnUse" color-interpolation-filters="sRGB">
<feFlood flood-opacity="0" result="BackgroundImageFix"/>
<feGaussianBlur in="BackgroundImageFix" stdDeviation="42.5"/>
<feComposite in2="SourceAlpha" operator="in" result="effect1_backgroundBlur_82_310"/>
<feBlend mode="normal" in="SourceGraphic" in2="effect1_backgroundBlur_82_310" result="shape"/>
</filter>
<linearGradient id="paint0_linear_82_310" x1="15.3914" y1="25.3053" x2="43.7627" y2="25.4686" gradientUnits="userSpaceOnUse">
<stop stop-color="#5EEC75"/>
<stop offset="1" stop-color="#57E9A5" stop-opacity="0.65"/>
</linearGradient>
</defs>
</svg>
