<?xml version="1.0" encoding="utf-8"?>
<svg xmlns="http://www.w3.org/2000/svg" xmlns:xlink="http://www.w3.org/1999/xlink" style="margin: auto; display: block; shape-rendering: auto;" width="614px" height="614px" viewBox="0 0 100 100" preserveAspectRatio="xMidYMid">
<g transform="rotate(0 50 50)">
  <rect x="43.5" y="27.5" rx="6.5" ry="6.5" width="13" height="13" fill="#fbd679">
    <animate attributeName="opacity" values="1;0" keyTimes="0;1" dur="0.8695652173913042s" begin="-0.7905138339920947s" repeatCount="indefinite"></animate>
  </rect>
</g><g transform="rotate(32.72727272727273 50 50)">
  <rect x="43.5" y="27.5" rx="6.5" ry="6.5" width="13" height="13" fill="#fff6d4">
    <animate attributeName="opacity" values="1;0" keyTimes="0;1" dur="0.8695652173913042s" begin="-0.7114624505928853s" repeatCount="indefinite"></animate>
  </rect>
</g><g transform="rotate(65.45454545454545 50 50)">
  <rect x="43.5" y="27.5" rx="6.5" ry="6.5" width="13" height="13" fill="#3185e7">
    <animate attributeName="opacity" values="1;0" keyTimes="0;1" dur="0.8695652173913042s" begin="-0.6324110671936758s" repeatCount="indefinite"></animate>
  </rect>
</g><g transform="rotate(98.18181818181819 50 50)">
  <rect x="43.5" y="27.5" rx="6.5" ry="6.5" width="13" height="13" fill="#edf9ff">
    <animate attributeName="opacity" values="1;0" keyTimes="0;1" dur="0.8695652173913042s" begin="-0.5533596837944663s" repeatCount="indefinite"></animate>
  </rect>
</g><g transform="rotate(130.9090909090909 50 50)">
  <rect x="43.5" y="27.5" rx="6.5" ry="6.5" width="13" height="13" fill="#fbd679">
    <animate attributeName="opacity" values="1;0" keyTimes="0;1" dur="0.8695652173913042s" begin="-0.47430830039525684s" repeatCount="indefinite"></animate>
  </rect>
</g><g transform="rotate(163.63636363636363 50 50)">
  <rect x="43.5" y="27.5" rx="6.5" ry="6.5" width="13" height="13" fill="#fff6d4">
    <animate attributeName="opacity" values="1;0" keyTimes="0;1" dur="0.8695652173913042s" begin="-0.39525691699604737s" repeatCount="indefinite"></animate>
  </rect>
</g><g transform="rotate(196.36363636363637 50 50)">
  <rect x="43.5" y="27.5" rx="6.5" ry="6.5" width="13" height="13" fill="#3185e7">
    <animate attributeName="opacity" values="1;0" keyTimes="0;1" dur="0.8695652173913042s" begin="-0.3162055335968379s" repeatCount="indefinite"></animate>
  </rect>
</g><g transform="rotate(229.0909090909091 50 50)">
  <rect x="43.5" y="27.5" rx="6.5" ry="6.5" width="13" height="13" fill="#edf9ff">
    <animate attributeName="opacity" values="1;0" keyTimes="0;1" dur="0.8695652173913042s" begin="-0.23715415019762842s" repeatCount="indefinite"></animate>
  </rect>
</g><g transform="rotate(261.8181818181818 50 50)">
  <rect x="43.5" y="27.5" rx="6.5" ry="6.5" width="13" height="13" fill="#fbd679">
    <animate attributeName="opacity" values="1;0" keyTimes="0;1" dur="0.8695652173913042s" begin="-0.15810276679841895s" repeatCount="indefinite"></animate>
  </rect>
</g><g transform="rotate(294.54545454545456 50 50)">
  <rect x="43.5" y="27.5" rx="6.5" ry="6.5" width="13" height="13" fill="#fff6d4">
    <animate attributeName="opacity" values="1;0" keyTimes="0;1" dur="0.8695652173913042s" begin="-0.07905138339920947s" repeatCount="indefinite"></animate>
  </rect>
</g><g transform="rotate(327.27272727272725 50 50)">
  <rect x="43.5" y="27.5" rx="6.5" ry="6.5" width="13" height="13" fill="#3185e7">
    <animate attributeName="opacity" values="1;0" keyTimes="0;1" dur="0.8695652173913042s" begin="0s" repeatCount="indefinite"></animate>
  </rect>
</g>
<!-- [ldio] generated by https://loading.io/ --></svg>