<?xml version="1.0" encoding="utf-8"?>
<svg xmlns="http://www.w3.org/2000/svg" xmlns:xlink="http://www.w3.org/1999/xlink" style="margin: auto; display: block; shape-rendering: auto;" width="614px" height="614px" viewBox="0 0 100 100" preserveAspectRatio="xMidYMid">
<g transform="rotate(0 50 50)">
  <rect x="45.5" y="30.5" rx="4.5" ry="4.5" width="9" height="9" fill="#fbd679">
    <animate attributeName="opacity" values="1;0" keyTimes="0;1" dur="1.7543859649122806s" begin="-1.5948963317384368s" repeatCount="indefinite"></animate>
  </rect>
</g><g transform="rotate(32.72727272727273 50 50)">
  <rect x="45.5" y="30.5" rx="4.5" ry="4.5" width="9" height="9" fill="#fff6d4">
    <animate attributeName="opacity" values="1;0" keyTimes="0;1" dur="1.7543859649122806s" begin="-1.4354066985645932s" repeatCount="indefinite"></animate>
  </rect>
</g><g transform="rotate(65.45454545454545 50 50)">
  <rect x="45.5" y="30.5" rx="4.5" ry="4.5" width="9" height="9" fill="#3185e7">
    <animate attributeName="opacity" values="1;0" keyTimes="0;1" dur="1.7543859649122806s" begin="-1.2759170653907494s" repeatCount="indefinite"></animate>
  </rect>
</g><g transform="rotate(98.18181818181819 50 50)">
  <rect x="45.5" y="30.5" rx="4.5" ry="4.5" width="9" height="9" fill="#edf9ff">
    <animate attributeName="opacity" values="1;0" keyTimes="0;1" dur="1.7543859649122806s" begin="-1.1164274322169059s" repeatCount="indefinite"></animate>
  </rect>
</g><g transform="rotate(130.9090909090909 50 50)">
  <rect x="45.5" y="30.5" rx="4.5" ry="4.5" width="9" height="9" fill="#fbd679">
    <animate attributeName="opacity" values="1;0" keyTimes="0;1" dur="1.7543859649122806s" begin="-0.9569377990430621s" repeatCount="indefinite"></animate>
  </rect>
</g><g transform="rotate(163.63636363636363 50 50)">
  <rect x="45.5" y="30.5" rx="4.5" ry="4.5" width="9" height="9" fill="#fff6d4">
    <animate attributeName="opacity" values="1;0" keyTimes="0;1" dur="1.7543859649122806s" begin="-0.7974481658692184s" repeatCount="indefinite"></animate>
  </rect>
</g><g transform="rotate(196.36363636363637 50 50)">
  <rect x="45.5" y="30.5" rx="4.5" ry="4.5" width="9" height="9" fill="#3185e7">
    <animate attributeName="opacity" values="1;0" keyTimes="0;1" dur="1.7543859649122806s" begin="-0.6379585326953747s" repeatCount="indefinite"></animate>
  </rect>
</g><g transform="rotate(229.0909090909091 50 50)">
  <rect x="45.5" y="30.5" rx="4.5" ry="4.5" width="9" height="9" fill="#edf9ff">
    <animate attributeName="opacity" values="1;0" keyTimes="0;1" dur="1.7543859649122806s" begin="-0.47846889952153104s" repeatCount="indefinite"></animate>
  </rect>
</g><g transform="rotate(261.8181818181818 50 50)">
  <rect x="45.5" y="30.5" rx="4.5" ry="4.5" width="9" height="9" fill="#fbd679">
    <animate attributeName="opacity" values="1;0" keyTimes="0;1" dur="1.7543859649122806s" begin="-0.31897926634768736s" repeatCount="indefinite"></animate>
  </rect>
</g><g transform="rotate(294.54545454545456 50 50)">
  <rect x="45.5" y="30.5" rx="4.5" ry="4.5" width="9" height="9" fill="#fff6d4">
    <animate attributeName="opacity" values="1;0" keyTimes="0;1" dur="1.7543859649122806s" begin="-0.15948963317384368s" repeatCount="indefinite"></animate>
  </rect>
</g><g transform="rotate(327.27272727272725 50 50)">
  <rect x="45.5" y="30.5" rx="4.5" ry="4.5" width="9" height="9" fill="#3185e7">
    <animate attributeName="opacity" values="1;0" keyTimes="0;1" dur="1.7543859649122806s" begin="0s" repeatCount="indefinite"></animate>
  </rect>
</g>
<!-- [ldio] generated by https://loading.io/ --></svg>