<svg width="15" height="15" viewBox="0 0 15 15" fill="none" xmlns="http://www.w3.org/2000/svg">
<path d="M7.49999 0C5.07629 0 3.10449 1.9718 3.10449 4.3955C3.10449 5.05647 3.24766 5.69171 3.52992 6.284C3.5356 6.29667 3.54156 6.30911 3.54793 6.32156L6.86895 12.7517C6.99088 12.9878 7.23432 13.136 7.49993 13.136C7.76559 13.136 8.00904 12.9878 8.13091 12.7517L11.451 6.32332C11.4568 6.31224 11.4621 6.30105 11.4672 6.28974C11.7513 5.69575 11.8954 5.05858 11.8954 4.3955C11.8955 1.9718 9.92369 0 7.49999 0ZM7.49999 6.69619C6.23138 6.69619 5.19929 5.6641 5.19929 4.3955C5.19929 3.12695 6.23138 2.09486 7.49999 2.09486C8.76859 2.09486 9.80068 3.12695 9.80068 4.3955C9.80068 5.6641 8.76859 6.69619 7.49999 6.69619Z" fill="black" fill-opacity="0.75"/>
<path d="M9.19309 14.1478H5.80684C5.57146 14.1478 5.38074 14.3385 5.38074 14.5739C5.38074 14.8093 5.57146 15 5.80684 15H9.19309C9.42847 15 9.6192 14.8093 9.6192 14.5739C9.6192 14.3385 9.42842 14.1478 9.19309 14.1478Z" fill="black" fill-opacity="0.75"/>
</svg>
