<svg width="163" height="129" viewBox="0 0 163 129" fill="none" xmlns="http://www.w3.org/2000/svg">
<circle cx="98.6138" cy="63.3946" r="63.3946" fill="#EDF9FF"/>
<circle cx="118.337" cy="88.7524" r="39.4455" fill="#FFF6D5"/>
<path d="M57.7421 99.97C57.5021 99.97 57.3421 99.95 57.2621 99.91C57.1821 99.85 57.0821 99.71 56.9621 99.49L48.2921 83.68V99.25C48.2921 99.57 48.2621 99.77 48.2021 99.85C48.1421 99.93 47.9521 99.97 47.6321 99.97H44.9021C44.6021 99.97 44.4121 99.93 44.3321 99.85C44.2521 99.77 44.2121 99.57 44.2121 99.25V77.62C44.2121 77.28 44.2421 77.06 44.3021 76.96C44.3821 76.86 44.6021 76.81 44.9621 76.81H47.9321C48.1721 76.81 48.3321 76.84 48.4121 76.9C48.4921 76.96 48.6021 77.12 48.7421 77.38L57.2921 93.07V77.53C57.2921 77.23 57.3221 77.04 57.3821 76.96C57.4621 76.86 57.6521 76.81 57.9521 76.81H60.6521C61.0121 76.81 61.2221 76.86 61.2821 76.96C61.3421 77.06 61.3721 77.25 61.3721 77.53V99.13C61.3721 99.51 61.3321 99.75 61.2521 99.85C61.1721 99.93 60.9521 99.97 60.5921 99.97H57.7421ZM78.909 97.63C78.169 98.57 77.279 99.28 76.239 99.76C75.219 100.22 74.079 100.45 72.819 100.45C71.499 100.45 70.339 100.21 69.339 99.73C68.359 99.25 67.529 98.61 66.849 97.81C66.189 96.99 65.689 96.04 65.349 94.96C65.009 93.88 64.839 92.74 64.839 91.54C64.839 90.34 64.999 89.2 65.319 88.12C65.659 87.04 66.159 86.1 66.819 85.3C67.499 84.48 68.339 83.84 69.339 83.38C70.339 82.9 71.499 82.66 72.819 82.66C74.139 82.66 75.299 82.9 76.299 83.38C77.299 83.86 78.129 84.51 78.789 85.33C79.469 86.13 79.979 87.07 80.319 88.15C80.659 89.21 80.829 90.34 80.829 91.54C80.829 92.72 80.659 93.84 80.319 94.9C79.999 95.94 79.529 96.85 78.909 97.63ZM72.819 86.17C72.159 86.17 71.579 86.33 71.079 86.65C70.579 86.95 70.159 87.35 69.819 87.85C69.499 88.35 69.249 88.92 69.069 89.56C68.909 90.2 68.829 90.86 68.829 91.54C68.829 92.22 68.909 92.88 69.069 93.52C69.249 94.16 69.499 94.74 69.819 95.26C70.159 95.76 70.579 96.17 71.079 96.49C71.579 96.79 72.159 96.94 72.819 96.94C73.499 96.94 74.089 96.79 74.589 96.49C75.089 96.17 75.499 95.76 75.819 95.26C76.159 94.74 76.409 94.16 76.569 93.52C76.729 92.88 76.809 92.22 76.809 91.54C76.809 90.88 76.729 90.23 76.569 89.59C76.409 88.95 76.159 88.38 75.819 87.88C75.499 87.36 75.089 86.95 74.589 86.65C74.089 86.33 73.499 86.17 72.819 86.17ZM94.5823 88.75L91.1623 99.61C91.1223 99.77 91.0723 99.87 91.0123 99.91C90.9523 99.95 90.8123 99.97 90.5923 99.97H87.7123C87.5523 99.97 87.4323 99.95 87.3523 99.91C87.2723 99.87 87.2123 99.77 87.1723 99.61L82.0423 83.71C81.9423 83.41 81.9223 83.22 81.9823 83.14C82.0623 83.06 82.2723 83.02 82.6123 83.02H85.3723C85.5723 83.02 85.7023 83.04 85.7623 83.08C85.8423 83.12 85.9023 83.22 85.9423 83.38L89.2123 94.3L92.5723 83.38C92.6123 83.22 92.6623 83.12 92.7223 83.08C92.7823 83.04 92.9223 83.02 93.1423 83.02H96.0223C96.2423 83.02 96.3823 83.04 96.4423 83.08C96.5023 83.12 96.5523 83.22 96.5923 83.38L99.9523 94.3L103.222 83.38C103.262 83.22 103.312 83.12 103.372 83.08C103.452 83.04 103.592 83.02 103.792 83.02H106.552C106.892 83.02 107.092 83.06 107.152 83.14C107.232 83.22 107.222 83.41 107.122 83.71L101.992 99.61C101.952 99.77 101.892 99.87 101.812 99.91C101.732 99.95 101.612 99.97 101.452 99.97H98.5723C98.3523 99.97 98.2123 99.95 98.1523 99.91C98.0923 99.87 98.0423 99.77 98.0023 99.61L94.5823 88.75ZM120.462 98.32C119.942 98.9 119.252 99.38 118.392 99.76C117.532 100.12 116.652 100.34 115.752 100.42C115.272 100.48 114.722 100.49 114.102 100.45C113.502 100.41 112.912 100.34 112.332 100.24C111.752 100.16 111.222 100.07 110.742 99.97C110.262 99.85 109.902 99.74 109.662 99.64C109.442 99.54 109.302 99.45 109.242 99.37C109.182 99.27 109.172 99.1 109.212 98.86L109.512 95.95C109.532 95.75 109.572 95.63 109.632 95.59C109.712 95.55 109.872 95.58 110.112 95.68C110.492 95.84 110.922 95.99 111.402 96.13C111.902 96.25 112.402 96.35 112.902 96.43C113.422 96.49 113.922 96.53 114.402 96.55C114.902 96.57 115.352 96.53 115.752 96.43C116.592 96.23 117.192 95.9 117.552 95.44C117.912 94.98 118.092 94.32 118.092 93.46C118.092 93.28 118.052 93.07 117.972 92.83C117.892 92.59 117.742 92.33 117.522 92.05C117.302 91.75 117.002 91.44 116.622 91.12C116.262 90.8 115.792 90.46 115.212 90.1C114.112 89.42 113.172 88.79 112.392 88.21C111.632 87.63 111.002 87.06 110.502 86.5C110.022 85.92 109.662 85.33 109.422 84.73C109.202 84.13 109.092 83.47 109.092 82.75C109.092 81.85 109.272 81.02 109.632 80.26C110.012 79.48 110.522 78.81 111.162 78.25C111.822 77.67 112.592 77.22 113.472 76.9C114.352 76.58 115.302 76.42 116.322 76.42C117.342 76.42 118.212 76.5 118.932 76.66C119.672 76.8 120.282 76.98 120.762 77.2C121.022 77.32 121.162 77.42 121.182 77.5C121.222 77.58 121.222 77.73 121.182 77.95L120.612 80.5C120.572 80.68 120.502 80.79 120.402 80.83C120.302 80.87 120.102 80.84 119.802 80.74C118.862 80.44 117.992 80.26 117.192 80.2C116.412 80.14 115.732 80.21 115.152 80.41C114.572 80.61 114.112 80.93 113.772 81.37C113.452 81.79 113.292 82.33 113.292 82.99C113.292 83.47 113.502 83.96 113.922 84.46C114.362 84.96 115.062 85.5 116.022 86.08C117.242 86.84 118.252 87.52 119.052 88.12C119.872 88.72 120.522 89.31 121.002 89.89C121.482 90.45 121.822 91.03 122.022 91.63C122.222 92.21 122.322 92.86 122.322 93.58C122.322 94.54 122.152 95.41 121.812 96.19C121.492 96.97 121.042 97.68 120.462 98.32ZM138.97 92.14C138.95 92.38 138.89 92.57 138.79 92.71C138.71 92.83 138.55 92.89 138.31 92.89H128.92C129.06 94.23 129.48 95.22 130.18 95.86C130.9 96.5 131.75 96.84 132.73 96.88C133.65 96.92 134.45 96.83 135.13 96.61C135.83 96.39 136.5 96.08 137.14 95.68C137.42 95.5 137.61 95.45 137.71 95.53C137.81 95.61 137.86 95.82 137.86 96.16V98.41C137.86 98.63 137.83 98.78 137.77 98.86C137.73 98.94 137.62 99.05 137.44 99.19C136.86 99.59 136.12 99.89 135.22 100.09C134.34 100.29 133.47 100.39 132.61 100.39C130.21 100.39 128.31 99.62 126.91 98.08C125.53 96.54 124.84 94.35 124.84 91.51C124.84 90.45 124.98 89.39 125.26 88.33C125.54 87.27 125.99 86.32 126.61 85.48C127.23 84.62 127.99 83.93 128.89 83.41C129.79 82.87 130.86 82.6 132.1 82.6C133.36 82.6 134.42 82.83 135.28 83.29C136.16 83.75 136.87 84.37 137.41 85.15C137.97 85.93 138.37 86.84 138.61 87.88C138.85 88.9 138.97 89.99 138.97 91.15V92.14ZM132.19 86.08C131.77 86.08 131.38 86.18 131.02 86.38C130.66 86.58 130.34 86.84 130.06 87.16C129.8 87.48 129.57 87.85 129.37 88.27C129.17 88.69 129.04 89.13 128.98 89.59H135.07C135.07 89.19 135 88.78 134.86 88.36C134.74 87.94 134.56 87.57 134.32 87.25C134.1 86.91 133.81 86.63 133.45 86.41C133.09 86.19 132.67 86.08 132.19 86.08ZM155.317 92.14C155.297 92.38 155.237 92.57 155.137 92.71C155.057 92.83 154.897 92.89 154.657 92.89H145.267C145.407 94.23 145.827 95.22 146.527 95.86C147.247 96.5 148.097 96.84 149.077 96.88C149.997 96.92 150.797 96.83 151.477 96.61C152.177 96.39 152.847 96.08 153.487 95.68C153.767 95.5 153.957 95.45 154.057 95.53C154.157 95.61 154.207 95.82 154.207 96.16V98.41C154.207 98.63 154.177 98.78 154.117 98.86C154.077 98.94 153.967 99.05 153.787 99.19C153.207 99.59 152.467 99.89 151.567 100.09C150.687 100.29 149.817 100.39 148.957 100.39C146.557 100.39 144.657 99.62 143.257 98.08C141.877 96.54 141.187 94.35 141.187 91.51C141.187 90.45 141.327 89.39 141.607 88.33C141.887 87.27 142.337 86.32 142.957 85.48C143.577 84.62 144.337 83.93 145.237 83.41C146.137 82.87 147.207 82.6 148.447 82.6C149.707 82.6 150.767 82.83 151.627 83.29C152.507 83.75 153.217 84.37 153.757 85.15C154.317 85.93 154.717 86.84 154.957 87.88C155.197 88.9 155.317 89.99 155.317 91.15V92.14ZM148.537 86.08C148.117 86.08 147.727 86.18 147.367 86.38C147.007 86.58 146.687 86.84 146.407 87.16C146.147 87.48 145.917 87.85 145.717 88.27C145.517 88.69 145.387 89.13 145.327 89.59H151.417C151.417 89.19 151.347 88.78 151.207 88.36C151.087 87.94 150.907 87.57 150.667 87.25C150.447 86.91 150.157 86.63 149.797 86.41C149.437 86.19 149.017 86.08 148.537 86.08Z" fill="#3185E7"/>
</svg>
