<svg width="31" height="30" viewBox="0 0 31 30" fill="none" xmlns="http://www.w3.org/2000/svg">
<g clip-path="url(#clip0_174_283)" filter="url(#filter0_i_174_283)">
<path d="M15.2637 17.1111C19.4075 17.1111 22.7637 13.73 22.7637 9.55549C22.7637 5.38107 19.4075 1.99997 15.2637 1.99997C11.12 1.99997 7.76372 5.38107 7.76372 9.55549C7.76372 13.73 11.12 17.1111 15.2637 17.1111Z" fill="#C5E8FC"/>
<path d="M9.32923 19.7962C9.74823 19.6932 10.178 19.9038 10.3682 20.2937L13.7548 22.7939C15.2637 22.7936 15.2637 22.794 16.7725 22.7937L20.1592 20.2937C20.3495 19.9038 20.7792 19.6932 21.1982 19.7962C25.7016 20.9028 30.2637 23.1594 30.2637 26.5541V30.3319H0.263733V26.5541C0.263733 23.1594 4.82582 20.9028 9.32923 19.7962Z" fill="#C5E8FC"/>
</g>
<defs>
<filter id="filter0_i_174_283" x="0.263733" y="-3.05176e-05" width="30" height="34" filterUnits="userSpaceOnUse" color-interpolation-filters="sRGB">
<feFlood flood-opacity="0" result="BackgroundImageFix"/>
<feBlend mode="normal" in="SourceGraphic" in2="BackgroundImageFix" result="shape"/>
<feColorMatrix in="SourceAlpha" type="matrix" values="0 0 0 0 0 0 0 0 0 0 0 0 0 0 0 0 0 0 127 0" result="hardAlpha"/>
<feOffset dy="4"/>
<feGaussianBlur stdDeviation="2"/>
<feComposite in2="hardAlpha" operator="arithmetic" k2="-1" k3="1"/>
<feColorMatrix type="matrix" values="0 0 0 0 0.194019 0 0 0 0 0.520687 0 0 0 0 0.904167 0 0 0 0.21 0"/>
<feBlend mode="normal" in2="shape" result="effect1_innerShadow_174_283"/>
</filter>
<clipPath id="clip0_174_283">
<rect width="30" height="30" fill="white" transform="translate(0.263733 -3.05176e-05)"/>
</clipPath>
</defs>
</svg>
