<svg width="163" height="129" viewBox="0 0 163 129" fill="none" xmlns="http://www.w3.org/2000/svg">
<circle cx="98.6138" cy="63.3946" r="63.3946" fill="#EDF9FF"/>
<circle cx="118.337" cy="88.7524" r="39.4455" fill="#FFF6D5"/>
<path d="M34.7421 101C34.5021 101 34.3421 100.98 34.2621 100.94C34.1821 100.88 34.0821 100.74 33.9621 100.52L25.2921 84.7097V100.28C25.2921 100.6 25.2621 100.8 25.2021 100.88C25.1421 100.96 24.9521 101 24.6321 101H21.9021C21.6021 101 21.4121 100.96 21.3321 100.88C21.2521 100.8 21.2121 100.6 21.2121 100.28V78.6497C21.2121 78.3097 21.2421 78.0897 21.3021 77.9897C21.3821 77.8897 21.6021 77.8397 21.9621 77.8397H24.9321C25.1721 77.8397 25.3321 77.8697 25.4121 77.9297C25.4921 77.9897 25.6021 78.1497 25.7421 78.4097L34.2921 94.0997V78.5597C34.2921 78.2597 34.3221 78.0697 34.3821 77.9897C34.4621 77.8897 34.6521 77.8397 34.9521 77.8397H37.6521C38.0121 77.8397 38.2221 77.8897 38.2821 77.9897C38.3421 78.0897 38.3721 78.2797 38.3721 78.5597V100.16C38.3721 100.54 38.3321 100.78 38.2521 100.88C38.1721 100.96 37.9521 101 37.5921 101H34.7421ZM55.909 98.6597C55.169 99.5997 54.279 100.31 53.239 100.79C52.219 101.25 51.079 101.48 49.819 101.48C48.499 101.48 47.339 101.24 46.339 100.76C45.359 100.28 44.529 99.6397 43.849 98.8397C43.189 98.0197 42.689 97.0697 42.349 95.9897C42.009 94.9097 41.839 93.7697 41.839 92.5697C41.839 91.3697 41.999 90.2297 42.319 89.1497C42.659 88.0697 43.159 87.1297 43.819 86.3297C44.499 85.5097 45.339 84.8697 46.339 84.4097C47.339 83.9297 48.499 83.6897 49.819 83.6897C51.139 83.6897 52.299 83.9297 53.299 84.4097C54.299 84.8897 55.129 85.5397 55.789 86.3597C56.469 87.1597 56.979 88.0997 57.319 89.1797C57.659 90.2397 57.829 91.3697 57.829 92.5697C57.829 93.7497 57.659 94.8697 57.319 95.9297C56.999 96.9697 56.529 97.8797 55.909 98.6597ZM49.819 87.1997C49.159 87.1997 48.579 87.3597 48.079 87.6797C47.579 87.9797 47.159 88.3797 46.819 88.8797C46.499 89.3797 46.249 89.9497 46.069 90.5897C45.909 91.2297 45.829 91.8897 45.829 92.5697C45.829 93.2497 45.909 93.9097 46.069 94.5497C46.249 95.1897 46.499 95.7697 46.819 96.2897C47.159 96.7897 47.579 97.1997 48.079 97.5197C48.579 97.8197 49.159 97.9697 49.819 97.9697C50.499 97.9697 51.089 97.8197 51.589 97.5197C52.089 97.1997 52.499 96.7897 52.819 96.2897C53.159 95.7697 53.409 95.1897 53.569 94.5497C53.729 93.9097 53.809 93.2497 53.809 92.5697C53.809 91.9097 53.729 91.2597 53.569 90.6197C53.409 89.9797 53.159 89.4097 52.819 88.9097C52.499 88.3897 52.089 87.9797 51.589 87.6797C51.089 87.3597 50.499 87.1997 49.819 87.1997ZM71.5823 89.7797L68.1623 100.64C68.1223 100.8 68.0723 100.9 68.0123 100.94C67.9523 100.98 67.8123 101 67.5923 101H64.7123C64.5523 101 64.4323 100.98 64.3523 100.94C64.2723 100.9 64.2123 100.8 64.1723 100.64L59.0423 84.7397C58.9423 84.4397 58.9223 84.2497 58.9823 84.1697C59.0623 84.0897 59.2723 84.0497 59.6123 84.0497H62.3723C62.5723 84.0497 62.7023 84.0697 62.7623 84.1097C62.8423 84.1497 62.9023 84.2497 62.9423 84.4097L66.2123 95.3297L69.5723 84.4097C69.6123 84.2497 69.6623 84.1497 69.7223 84.1097C69.7823 84.0697 69.9223 84.0497 70.1423 84.0497H73.0223C73.2423 84.0497 73.3823 84.0697 73.4423 84.1097C73.5023 84.1497 73.5523 84.2497 73.5923 84.4097L76.9523 95.3297L80.2223 84.4097C80.2623 84.2497 80.3123 84.1497 80.3723 84.1097C80.4523 84.0697 80.5923 84.0497 80.7923 84.0497H83.5523C83.8923 84.0497 84.0923 84.0897 84.1523 84.1697C84.2323 84.2497 84.2223 84.4397 84.1223 84.7397L78.9923 100.64C78.9523 100.8 78.8923 100.9 78.8123 100.94C78.7323 100.98 78.6123 101 78.4523 101H75.5723C75.3523 101 75.2123 100.98 75.1523 100.94C75.0923 100.9 75.0423 100.8 75.0023 100.64L71.5823 89.7797ZM97.462 99.3497C96.942 99.9297 96.252 100.41 95.392 100.79C94.532 101.15 93.652 101.37 92.752 101.45C92.272 101.51 91.722 101.52 91.102 101.48C90.502 101.44 89.912 101.37 89.332 101.27C88.752 101.19 88.222 101.1 87.742 101C87.262 100.88 86.902 100.77 86.662 100.67C86.442 100.57 86.302 100.48 86.242 100.4C86.182 100.3 86.172 100.13 86.212 99.8897L86.512 96.9797C86.532 96.7797 86.572 96.6597 86.632 96.6197C86.712 96.5797 86.872 96.6097 87.112 96.7097C87.492 96.8697 87.922 97.0197 88.402 97.1597C88.902 97.2797 89.402 97.3797 89.902 97.4597C90.422 97.5197 90.922 97.5597 91.402 97.5797C91.902 97.5997 92.352 97.5597 92.752 97.4597C93.592 97.2597 94.192 96.9297 94.552 96.4697C94.912 96.0097 95.092 95.3497 95.092 94.4897C95.092 94.3097 95.052 94.0997 94.972 93.8597C94.892 93.6197 94.742 93.3597 94.522 93.0797C94.302 92.7797 94.002 92.4697 93.622 92.1497C93.262 91.8297 92.792 91.4897 92.212 91.1297C91.112 90.4497 90.172 89.8197 89.392 89.2397C88.632 88.6597 88.002 88.0897 87.502 87.5297C87.022 86.9497 86.662 86.3597 86.422 85.7597C86.202 85.1597 86.092 84.4997 86.092 83.7797C86.092 82.8797 86.272 82.0497 86.632 81.2897C87.012 80.5097 87.522 79.8397 88.162 79.2797C88.822 78.6997 89.592 78.2497 90.472 77.9297C91.352 77.6097 92.302 77.4497 93.322 77.4497C94.342 77.4497 95.212 77.5297 95.932 77.6897C96.672 77.8297 97.282 78.0097 97.762 78.2297C98.022 78.3497 98.162 78.4497 98.182 78.5297C98.222 78.6097 98.222 78.7597 98.182 78.9797L97.612 81.5297C97.572 81.7097 97.502 81.8197 97.402 81.8597C97.302 81.8997 97.102 81.8697 96.802 81.7697C95.862 81.4697 94.992 81.2897 94.192 81.2297C93.412 81.1697 92.732 81.2397 92.152 81.4397C91.572 81.6397 91.112 81.9597 90.772 82.3997C90.452 82.8197 90.292 83.3597 90.292 84.0197C90.292 84.4997 90.502 84.9897 90.922 85.4897C91.362 85.9897 92.062 86.5297 93.022 87.1097C94.242 87.8697 95.252 88.5497 96.052 89.1497C96.872 89.7497 97.522 90.3397 98.002 90.9197C98.482 91.4797 98.822 92.0597 99.022 92.6597C99.222 93.2397 99.322 93.8897 99.322 94.6097C99.322 95.5697 99.152 96.4397 98.812 97.2197C98.492 97.9997 98.042 98.7097 97.462 99.3497ZM115.97 93.1697C115.95 93.4097 115.89 93.5997 115.79 93.7397C115.71 93.8597 115.55 93.9197 115.31 93.9197H105.92C106.06 95.2597 106.48 96.2497 107.18 96.8897C107.9 97.5297 108.75 97.8697 109.73 97.9097C110.65 97.9497 111.45 97.8597 112.13 97.6397C112.83 97.4197 113.5 97.1097 114.14 96.7097C114.42 96.5297 114.61 96.4797 114.71 96.5597C114.81 96.6397 114.86 96.8497 114.86 97.1897V99.4397C114.86 99.6597 114.83 99.8097 114.77 99.8897C114.73 99.9697 114.62 100.08 114.44 100.22C113.86 100.62 113.12 100.92 112.22 101.12C111.34 101.32 110.47 101.42 109.61 101.42C107.21 101.42 105.31 100.65 103.91 99.1097C102.53 97.5697 101.84 95.3797 101.84 92.5397C101.84 91.4797 101.98 90.4197 102.26 89.3597C102.54 88.2997 102.99 87.3497 103.61 86.5097C104.23 85.6497 104.99 84.9597 105.89 84.4397C106.79 83.8997 107.86 83.6297 109.1 83.6297C110.36 83.6297 111.42 83.8597 112.28 84.3197C113.16 84.7797 113.87 85.3997 114.41 86.1797C114.97 86.9597 115.37 87.8697 115.61 88.9097C115.85 89.9297 115.97 91.0197 115.97 92.1797V93.1697ZM109.19 87.1097C108.77 87.1097 108.38 87.2097 108.02 87.4097C107.66 87.6097 107.34 87.8697 107.06 88.1897C106.8 88.5097 106.57 88.8797 106.37 89.2997C106.17 89.7197 106.04 90.1597 105.98 90.6197H112.07C112.07 90.2197 112 89.8097 111.86 89.3897C111.74 88.9697 111.56 88.5997 111.32 88.2797C111.1 87.9397 110.81 87.6597 110.45 87.4397C110.09 87.2197 109.67 87.1097 109.19 87.1097ZM132.317 93.1697C132.297 93.4097 132.237 93.5997 132.137 93.7397C132.057 93.8597 131.897 93.9197 131.657 93.9197H122.267C122.407 95.2597 122.827 96.2497 123.527 96.8897C124.247 97.5297 125.097 97.8697 126.077 97.9097C126.997 97.9497 127.797 97.8597 128.477 97.6397C129.177 97.4197 129.847 97.1097 130.487 96.7097C130.767 96.5297 130.957 96.4797 131.057 96.5597C131.157 96.6397 131.207 96.8497 131.207 97.1897V99.4397C131.207 99.6597 131.177 99.8097 131.117 99.8897C131.077 99.9697 130.967 100.08 130.787 100.22C130.207 100.62 129.467 100.92 128.567 101.12C127.687 101.32 126.817 101.42 125.957 101.42C123.557 101.42 121.657 100.65 120.257 99.1097C118.877 97.5697 118.187 95.3797 118.187 92.5397C118.187 91.4797 118.327 90.4197 118.607 89.3597C118.887 88.2997 119.337 87.3497 119.957 86.5097C120.577 85.6497 121.337 84.9597 122.237 84.4397C123.137 83.8997 124.207 83.6297 125.447 83.6297C126.707 83.6297 127.767 83.8597 128.627 84.3197C129.507 84.7797 130.217 85.3997 130.757 86.1797C131.317 86.9597 131.717 87.8697 131.957 88.9097C132.197 89.9297 132.317 91.0197 132.317 92.1797V93.1697ZM125.537 87.1097C125.117 87.1097 124.727 87.2097 124.367 87.4097C124.007 87.6097 123.687 87.8697 123.407 88.1897C123.147 88.5097 122.917 88.8797 122.717 89.2997C122.517 89.7197 122.387 90.1597 122.327 90.6197H128.417C128.417 90.2197 128.347 89.8097 128.207 89.3897C128.087 88.9697 127.907 88.5997 127.667 88.2797C127.447 87.9397 127.157 87.6597 126.797 87.4397C126.437 87.2197 126.017 87.1097 125.537 87.1097Z" fill="#3185E7"/>
</svg>
