<svg width="16" height="16" viewBox="0 0 16 16" fill="none" xmlns="http://www.w3.org/2000/svg">
<g clip-path="url(#clip0_67_268)">
<path d="M3.24169 15.2657H12.3326C12.7091 15.2657 13.0144 14.9604 13.0144 14.5839V6.8566C13.0144 6.48005 12.7091 6.17478 12.3326 6.17478H11.6508V4.12932C11.6508 1.99891 9.91756 0.265686 7.78715 0.265686C5.65674 0.265686 3.92351 1.99891 3.92351 4.12932V6.17478H3.24169C2.86515 6.17478 2.55988 6.48005 2.55988 6.8566V14.5839C2.55988 14.9604 2.86515 15.2657 3.24169 15.2657ZM8.46897 10.9469V11.8566C8.46897 12.2331 8.16369 12.5384 7.78715 12.5384C7.4106 12.5384 7.10533 12.2331 7.10533 11.8566V10.9469C6.82951 10.7394 6.65078 10.4094 6.65078 10.0384C6.65078 9.41182 7.16056 8.90205 7.78715 8.90205C8.41374 8.90205 8.92351 9.41182 8.92351 10.0384C8.92351 10.4094 8.74478 10.7394 8.46897 10.9469ZM5.28715 4.12932C5.28715 2.75082 6.40865 1.62932 7.78715 1.62932C9.16565 1.62932 10.2871 2.75082 10.2871 4.12932V6.17478H5.28715V4.12932Z" fill="black" fill-opacity="0.4"/>
</g>
<defs>
<clipPath id="clip0_67_268">
<rect width="15" height="15" fill="white" transform="translate(0.28714 0.265686)"/>
</clipPath>
</defs>
</svg>
