<svg width="16" height="16" viewBox="0 0 16 16" fill="none" xmlns="http://www.w3.org/2000/svg">
<g clip-path="url(#clip0_179_296)">
<path d="M7.69925 8.74276C9.77112 8.74276 11.4492 6.95269 11.4492 4.74255C11.4492 2.53245 9.77112 0.742371 7.69925 0.742371C5.62737 0.742371 3.94925 2.53245 3.94925 4.74255C3.94925 6.95269 5.62737 8.74276 7.69925 8.74276Z" fill="black" fill-opacity="0.4"/>
<path d="M4.732 10.1643C4.9415 10.1098 5.15637 10.2213 5.2515 10.4277L6.94479 11.7515C7.69925 11.7513 7.69925 11.7515 8.45362 11.7513L10.147 10.4277C10.2421 10.2213 10.457 10.1098 10.6665 10.1643C12.9182 10.7502 15.1992 11.945 15.1992 13.7422V15.7424H0.199249V13.7422C0.199249 11.945 2.48029 10.7502 4.732 10.1643Z" fill="black" fill-opacity="0.4"/>
</g>
<defs>
<clipPath id="clip0_179_296">
<rect width="15" height="15" fill="white" transform="translate(0.28714 0.628723)"/>
</clipPath>
</defs>
</svg>
